HIERARCHY
ROOT Hips
{
	OFFSET 0.000000 0.000000 0.000000 
	CHANNELS 6 Xposition Yposition Zposition Yrotation Xrotation Zrotation
	JOINT Spine
	{
		OFFSET 0.000000 0.072080 0.012321 
		CHANNELS 3 Xrotation Yrotation Zrotation
		JOINT Spine1
		{
			OFFSET 0.000000 0.126984 -0.001294 
			CHANNELS 3 Xrotation Yrotation Zrotation
			JOINT Spine2
			{
				OFFSET 0.000000 0.106559 -0.010096 
				CHANNELS 3 Xrotation Yrotation Zrotation
				JOINT Neck
				{
					OFFSET 0.000000 0.108417 -0.034017 
					CHANNELS 3 Xrotation Yrotation Zrotation
					JOINT Neck1
					{
						OFFSET 0.000000 0.033906 0.007241 
						CHANNELS 3 Xrotation Yrotation Zrotation
						JOINT Head
						{
							OFFSET 0.000000 0.031458 0.006707 
							CHANNELS 3 Xrotation Yrotation Zrotation
							End Site
							{
								OFFSET 0.000000 0.179920 0.000962 
							}
						}
					}
				}
				JOINT LeftShoulder
				{
					OFFSET 0.048002 0.079586 -0.029634 
					CHANNELS 3 Zrotation Xrotation Yrotation
					JOINT LeftArm
					{
						OFFSET 0.096243 -0.008695 -0.014012 
						CHANNELS 3 Zrotation Xrotation Yrotation
						JOINT LeftForeArm
						{
							OFFSET 0.216305 0.000000 0.000000 
							CHANNELS 3 Xrotation Zrotation Yrotation
							JOINT LeftHand
							{
								OFFSET 0.217764 0.000000 0.000000 
								CHANNELS 3 Zrotation Yrotation Xrotation
								JOINT LeftHandThumb1
								{
									OFFSET 0.018582 -0.007835 0.020476 
									CHANNELS 3 Zrotation Xrotation Yrotation
									JOINT LeftHandThumb2
									{
										OFFSET 0.026269 -0.007835 0.022186 
										CHANNELS 3 Zrotation Xrotation Yrotation
										JOINT LeftHandThumb3
										{
											OFFSET 0.035170 -0.010504 0.017018 
											CHANNELS 3 Zrotation Xrotation Yrotation
											End Site
											{
												OFFSET 0.020312 -0.007813 0.007813 
											}
										}
									}
								}
								JOINT LeftHandMiddle1
								{
									OFFSET 0.081749 0.004803 0.003358 
									CHANNELS 3 Zrotation Xrotation Yrotation
									JOINT LeftHandMiddle2
									{
										OFFSET 0.045251 0.000000 0.000000 
										CHANNELS 3 Zrotation Xrotation Yrotation
										JOINT LeftHandMiddle3
										{
											OFFSET 0.029009 0.000000 0.000000 
											CHANNELS 3 Zrotation Xrotation Yrotation
											End Site
											{
												OFFSET 0.017969 0.000000 0.000000 
											}
										}
									}
								}
								JOINT LeftHandIndex1
								{
									OFFSET 0.081207 0.004803 0.021137 
									CHANNELS 3 Zrotation Xrotation Yrotation
									JOINT LeftHandIndex2
									{
										OFFSET 0.043354 0.000000 0.000000 
										CHANNELS 3 Zrotation Xrotation Yrotation
										JOINT LeftHandIndex3
										{
											OFFSET 0.026493 0.000000 0.000000 
											CHANNELS 3 Zrotation Xrotation Yrotation
											End Site
											{
												OFFSET 0.019531 0.000000 0.000000 
											}
										}
									}
								}
								JOINT LeftHandRing1
								{
									OFFSET 0.080666 0.002509 -0.014652 
									CHANNELS 3 Zrotation Xrotation Yrotation
									JOINT LeftHandRing2
									{
										OFFSET 0.042541 0.000000 0.000000 
										CHANNELS 3 Zrotation Xrotation Yrotation
										JOINT LeftHandRing3
										{
											OFFSET 0.029009 0.000000 0.000000 
											CHANNELS 3 Zrotation Xrotation Yrotation
											End Site
											{
												OFFSET 0.015625 0.000000 0.000000 
											}
										}
									}
								}
								JOINT LeftHandPinky1
								{
									OFFSET 0.078227 -0.000612 -0.030993 
									CHANNELS 3 Zrotation Xrotation Yrotation
									JOINT LeftHandPinky2
									{
										OFFSET 0.028721 0.000000 0.000000 
										CHANNELS 3 Zrotation Xrotation Yrotation
										JOINT LeftHandPinky3
										{
											OFFSET 0.021963 0.000000 0.000000 
											CHANNELS 3 Zrotation Xrotation Yrotation
											End Site
											{
												OFFSET 0.022656 0.000000 0.000000 
											}
										}
									}
								}
							}
						}
					}
				}
				JOINT RightShoulder
				{
					OFFSET -0.047970 0.079586 -0.029634 
					CHANNELS 3 Zrotation Xrotation Yrotation
					JOINT RightArm
					{
						OFFSET -0.096274 -0.008695 -0.014012 
						CHANNELS 3 Zrotation Xrotation Yrotation
						JOINT RightForeArm
						{
							OFFSET -0.216305 0.000000 0.000000 
							CHANNELS 3 Xrotation Zrotation Yrotation
							JOINT RightHand
							{
								OFFSET -0.217764 0.000000 0.000000 
								CHANNELS 3 Zrotation Yrotation Xrotation
								JOINT RightHandThumb1
								{
									OFFSET -0.019670 -0.007318 0.019638 
									CHANNELS 3 Zrotation Xrotation Yrotation
									JOINT RightHandThumb2
									{
										OFFSET -0.025498 -0.008492 0.023179 
										CHANNELS 3 Zrotation Xrotation Yrotation
										JOINT RightHandThumb3
										{
											OFFSET -0.034504 -0.010705 0.016680 
											CHANNELS 3 Zrotation Xrotation Yrotation
											End Site
											{
												OFFSET -0.020312 -0.007813 0.007813 
											}
										}
									}
								}
								JOINT RightHandIndex1
								{
									OFFSET -0.081770 0.003825 0.021187 
									CHANNELS 3 Zrotation Xrotation Yrotation
									JOINT RightHandIndex2
									{
										OFFSET -0.042006 0.000000 0.000000 
										CHANNELS 3 Zrotation Xrotation Yrotation
										JOINT RightHandIndex3
										{
											OFFSET -0.026449 0.000000 0.000000 
											CHANNELS 3 Zrotation Xrotation Yrotation
											End Site
											{
												OFFSET -0.020312 0.000000 0.000000 
											}
										}
									}
								}
								JOINT RightHandMiddle1
								{
									OFFSET -0.084059 0.003825 0.003342 
									CHANNELS 3 Zrotation Xrotation Yrotation
									JOINT RightHandMiddle2
									{
										OFFSET -0.043881 0.000000 0.000000 
										CHANNELS 3 Zrotation Xrotation Yrotation
										JOINT RightHandMiddle3
										{
											OFFSET -0.029191 0.000000 0.000000 
											CHANNELS 3 Zrotation Xrotation Yrotation
											End Site
											{
												OFFSET -0.017969 0.000000 0.000000 
											}
										}
									}
								}
								JOINT RightHandRing1
								{
									OFFSET -0.081798 0.003030 -0.015127 
									CHANNELS 3 Zrotation Xrotation Yrotation
									JOINT RightHandRing2
									{
										OFFSET -0.042198 0.000000 0.000000 
										CHANNELS 3 Zrotation Xrotation Yrotation
										JOINT RightHandRing3
										{
											OFFSET -0.026497 0.000000 0.000000 
											CHANNELS 3 Zrotation Xrotation Yrotation
											End Site
											{
												OFFSET -0.017188 0.000000 0.000000 
											}
										}
									}
								}
								JOINT RightHandPinky1
								{
									OFFSET -0.077902 -0.000930 -0.030891 
									CHANNELS 3 Zrotation Xrotation Yrotation
									JOINT RightHandPinky2
									{
										OFFSET -0.028538 0.000000 0.000000 
										CHANNELS 3 Zrotation Xrotation Yrotation
										JOINT RightHandPinky3
										{
											OFFSET -0.021734 0.000000 0.000000 
											CHANNELS 3 Zrotation Xrotation Yrotation
											End Site
											{
												OFFSET -0.022656 0.000000 0.000000 
											}
										}
									}
								}
							}
						}
					}
				}
			}
		}
	}
	JOINT LeftUpLeg
	{
		OFFSET 0.075264 -0.025573 0.000000 
		CHANNELS 3 Xrotation Yrotation Zrotation
		JOINT LeftLeg
		{
			OFFSET 0.000000 -0.326016 -0.013516 
			CHANNELS 3 Xrotation Yrotation Zrotation
			JOINT LeftFoot
			{
				OFFSET 0.000098 -0.306172 -0.006623 
				CHANNELS 3 Xrotation Yrotation Zrotation
				JOINT LeftToeBase
				{
					OFFSET -0.001432 -0.095259 0.064705 
					CHANNELS 3 Xrotation Yrotation Zrotation
					End Site
					{
						OFFSET 0.000000 0.000000 0.079438 
					}
				}
			}
		}
	}
	JOINT RightUpLeg
	{
		OFFSET -0.075264 -0.025573 0.000000 
		CHANNELS 3 Xrotation Yrotation Zrotation
		JOINT RightLeg
		{
			OFFSET 0.000000 -0.326016 -0.013516 
			CHANNELS 3 Xrotation Yrotation Zrotation
			JOINT RightFoot
			{
				OFFSET 0.000098 -0.306172 -0.006623 
				CHANNELS 3 Xrotation Yrotation Zrotation
				JOINT RightToeBase
				{
					OFFSET -0.001432 -0.095259 0.064705 
					CHANNELS 3 Xrotation Yrotation Zrotation
					End Site
					{
						OFFSET 0.000025 0.000000 0.079438 
					}
				}
			}
		}
	}
}
MOTION
Frames: 4
Frame Time: 0.033333
0.000115 0.735564 0.000024 1.395300 -0.892800 -4.921500 1.288300 -1.210500 2.554600 0.728700 0.264200 5.944700 0.710800 0.781500 5.852000 1.045300 -0.304700 -2.164000 -0.000000 0.000000 -0.000000 1.584900 0.544200 -8.140500 -4.916300 4.768000 -13.405900 -83.437698 -3.039800 4.401200 0.000000 -0.000000 -14.506800 -14.044900 -0.184200 -21.888399 6.239100 23.778299 5.843400 -6.591800 -9.477200 17.620701 2.665500 -2.262400 5.146800 -13.171100 -0.729500 4.771100 -33.601101 -0.459000 0.597000 -12.350700 -0.015300 0.239700 -4.902500 0.010200 1.517300 -20.736099 -0.255000 0.708700 -10.199800 -0.017700 -0.228000 -24.224701 -1.395600 6.751100 -40.371201 0.185300 0.277300 -19.427500 0.238300 -0.036400 -33.932999 -2.698000 10.689000 -45.787300 -0.183400 -0.365800 -20.697399 -0.171800 0.776100 5.481700 4.804400 2.879000 67.336800 0.135400 1.378100 0.000000 0.000000 17.736799 14.727000 -8.709800 -8.442000 -6.574500 24.604099 -7.453400 7.335700 -9.310700 -15.826100 -1.536100 -2.228700 -4.219600 5.576200 0.003900 -1.764200 20.714600 -0.332600 -1.133800 13.815200 -0.104100 0.951800 13.769400 -0.779400 -5.187800 33.575100 -0.659400 -1.261700 15.979800 -0.075800 -0.401700 24.768900 -1.541500 -7.382100 40.357800 -0.100600 -1.055200 17.751400 0.083000 1.507500 34.370499 -2.950600 -11.494900 45.780499 -0.546900 -0.495000 22.067699 -0.425200 1.799900 -21.041100 10.438700 16.037399 26.742001 9.467200 2.128300 -4.429500 3.500400 -9.335500 -0.432800 -0.000000 -0.000000 -1.141800 -4.813300 10.583900 12.407300 -5.102600 3.411000 -10.357900 1.007400 -8.293500 -0.521700 -0.000000 -0.000000 
-0.004649 0.734159 0.004897 4.148000 -0.892800 -4.923200 1.193600 -0.750900 2.601800 0.709400 0.717600 5.835100 0.726200 1.233300 5.735900 0.767600 -1.162800 -2.282800 -0.000000 0.000000 -0.000000 1.307600 -1.269400 -7.858100 -5.279500 4.858600 -13.199300 -83.079102 -3.560400 4.573300 -0.000000 0.000000 -13.936200 -14.492000 -1.041600 -21.407000 6.562800 23.642799 5.142800 -6.590800 -9.559400 17.957300 2.566200 -2.278300 5.246100 -13.777700 -0.762000 4.822000 -33.606602 -0.459100 0.597000 -12.357000 -0.015300 0.239700 -5.780500 -0.014900 1.549300 -20.689301 -0.254400 0.709000 -10.152900 -0.017700 -0.228000 -24.733500 -1.419200 6.716300 -40.343300 0.185100 0.277300 -19.398800 0.238000 -0.036400 -34.405998 -2.728800 10.752700 -45.696301 -0.183200 -0.365300 -20.606400 -0.171200 0.776500 5.253900 4.789000 3.074200 67.662300 0.194200 1.030700 0.000000 0.000000 17.593201 14.759000 -8.995900 -8.419700 -6.546200 24.645000 -7.547200 7.311600 -9.275200 -15.779500 -1.531000 -2.226800 -4.231900 5.488600 0.011200 -1.773800 20.708900 -0.332500 -1.133800 13.809500 -0.104100 0.951900 13.678500 -0.774000 -5.191100 33.572300 -0.659300 -1.261700 15.977000 -0.075700 -0.401700 24.707100 -1.538500 -7.396600 40.367298 -0.100600 -1.055300 17.761400 0.083000 1.507300 34.297001 -2.948800 -11.531500 45.781601 -0.546900 -0.495000 22.068899 -0.425200 1.799900 -21.644400 10.142700 16.324400 27.357901 7.747900 2.108000 -4.746200 2.513400 -9.356000 -0.386600 -0.000000 0.000000 -0.385400 -5.715300 10.942900 12.455100 -8.552200 3.858500 -11.150100 2.793000 -8.311800 -0.521700 -0.000000 0.000000 
-0.009492 0.732835 0.008349 6.747100 -0.892800 -4.924900 1.108800 -0.296000 2.633400 0.693200 1.186500 5.713900 0.746600 1.700300 5.607700 0.502500 -1.919000 -2.430200 -0.000000 0.000000 -0.000000 0.997900 -2.905700 -7.631100 -5.621700 4.944000 -13.001500 -82.708298 -4.184600 4.745800 0.000000 -0.000000 -13.565700 -14.755200 -1.996400 -20.941999 6.910100 23.473200 4.436600 -6.585900 -9.637400 18.277300 2.518800 -2.290200 5.343300 -14.320900 -0.791100 4.866500 -33.614399 -0.459200 0.596900 -12.365500 -0.015400 0.239600 -6.574100 -0.038700 1.574800 -20.644199 -0.253900 0.709300 -10.107900 -0.017700 -0.227900 -25.191299 -1.440500 6.687800 -40.319500 0.185000 0.277300 -19.374399 0.237800 -0.036400 -34.833900 -2.755200 10.802700 -45.611500 -0.183000 -0.364900 -20.521601 -0.170600 0.777000 5.021800 4.772900 3.286600 68.000000 0.243600 0.633300 0.000000 0.000000 17.410000 14.821800 -9.349400 -8.372400 -6.509300 24.696501 -7.634100 7.283100 -9.243400 -15.731600 -1.525500 -2.224700 -4.245500 5.402500 0.019100 -1.786200 20.703400 -0.332400 -1.133700 13.804000 -0.104000 0.952000 13.586800 -0.768500 -5.195200 33.569199 -0.659300 -1.261700 15.974100 -0.075700 -0.401600 24.645399 -1.535600 -7.411900 40.374802 -0.100700 -1.055400 17.769300 0.083100 1.507200 34.223099 -2.947100 -11.569700 45.782299 -0.546900 -0.495000 22.069599 -0.425200 1.799900 -22.264000 9.818200 16.574800 27.799601 6.292600 2.088400 -4.838300 1.569800 -9.355000 -0.365000 0.000000 -0.000000 0.246700 -6.596500 11.387400 12.305200 -9.871300 4.231300 -11.743600 2.578900 -8.730900 -0.520900 -0.000000 0.000000 
-0.014378 0.731632 0.010080 9.304500 -0.892800 -4.926100 1.050000 0.151300 2.621900 0.685800 1.700600 5.567400 0.780500 2.211900 5.452500 0.264200 -2.434100 -2.635900 -0.000000 0.000000 -0.000000 0.613700 -4.146300 -7.507200 -5.919000 5.017300 -12.848300 -82.325302 -5.049400 4.913600 0.000000 -0.000000 -13.711900 -14.602100 -3.203100 -20.483299 7.301700 23.220501 3.736900 -6.571000 -9.704600 18.554701 2.604600 -2.291200 5.432700 -14.690900 -0.810600 4.877100 -33.631199 -0.459400 0.596700 -12.382500 -0.015400 0.239600 -7.148000 -0.059400 1.584800 -20.606400 -0.253400 0.709500 -10.070000 -0.017700 -0.227800 -25.509899 -1.455100 6.662300 -40.309898 0.185000 0.277300 -19.364201 0.237700 -0.036400 -35.151901 -2.770000 10.812600 -45.546700 -0.182900 -0.364500 -20.456900 -0.170100 0.777300 4.799200 4.756800 3.515500 68.339401 0.261100 0.107200 0.000000 -0.000000 17.132299 14.943500 -9.846300 -8.283600 -6.448400 24.777201 -7.703500 7.242000 -9.222200 -15.678900 -1.518900 -2.222200 -4.261600 5.317500 0.028300 -1.806000 20.697300 -0.332200 -1.133600 13.797900 -0.104000 0.952100 13.489100 -0.762800 -5.200800 33.565201 -0.659200 -1.261600 15.970200 -0.075700 -0.401600 24.580500 -1.532500 -7.429100 40.377399 -0.100700 -1.055500 17.772499 0.083100 1.507100 34.150902 -2.945800 -11.610900 45.784801 -0.547000 -0.495100 22.072100 -0.425200 1.799900 -22.918301 9.421000 16.726101 27.990900 4.861100 2.101100 -4.641600 0.639400 -9.304700 -0.473500 0.000000 0.000000 0.648900 -7.363000 11.897800 12.066500 -9.862200 4.515100 -12.175900 0.936900 -9.452400 -0.520900 -0.000000 -0.000000 
